<svg width="16" height="16" viewBox="0 0 16 16" fill="none" xmlns="http://www.w3.org/2000/svg">
<g clip-path="url(#clip0_3_92)">
<mask id="path-1-inside-1_3_92" fill="white">
<path fill-rule="evenodd" clip-rule="evenodd" d="M15.5 9.69603C14.4645 10.3601 13.2329 10.7453 11.9113 10.7453C8.23499 10.7453 5.25473 7.765 5.25473 4.08866C5.25473 2.76712 5.63983 1.53553 6.30395 0.499989C2.97301 1.30983 0.5 4.31234 0.5 7.89245C0.5 12.094 3.90601 15.5 8.10754 15.5C11.6877 15.5 14.6902 13.027 15.5 9.69603Z"/>
</mask>
<path d="M15.5 9.69603L16.7146 9.99133L17.4518 6.95934L14.8252 8.64382L15.5 9.69603ZM6.30395 0.499989L7.35616 1.17479L9.04064 -1.45178L6.00865 -0.714628L6.30395 0.499989ZM14.8252 8.64382C13.985 9.18266 12.9866 9.49526 11.9113 9.49526V11.9953C13.4792 11.9953 14.9439 11.5376 16.1748 10.7482L14.8252 8.64382ZM11.9113 9.49526C8.92534 9.49526 6.50473 7.07464 6.50473 4.08866H4.00473C4.00473 8.45536 7.54463 11.9953 11.9113 11.9953V9.49526ZM6.50473 4.08866C6.50473 3.01341 6.81732 2.01499 7.35616 1.17479L5.25174 -0.174814C4.46235 1.05607 4.00473 2.52084 4.00473 4.08866H6.50473ZM1.75 7.89245C1.75 4.90225 3.81557 2.39139 6.59926 1.71461L6.00865 -0.714628C2.13044 0.228263 -0.75 3.72244 -0.75 7.89245H1.75ZM8.10754 14.25C4.59637 14.25 1.75 11.4036 1.75 7.89245H-0.75C-0.75 12.7843 3.21565 16.75 8.10754 16.75V14.25ZM14.2854 9.40073C13.6086 12.1844 11.0978 14.25 8.10754 14.25V16.75C12.2776 16.75 15.7717 13.8695 16.7146 9.99133L14.2854 9.40073Z" fill="white" mask="url(#path-1-inside-1_3_92)"/>
</g>
<defs>
<clipPath id="clip0_3_92">
<rect width="16" height="16" fill="white"/>
</clipPath>
</defs>
</svg>
