<svg width="16" height="16" viewBox="0 0 16 16" fill="none" xmlns="http://www.w3.org/2000/svg">
<g clip-path="url(#clip0_8_2)">
<path fill-rule="evenodd" clip-rule="evenodd" d="M16 12.25V4C16 3.46957 15.7893 2.96086 15.4142 2.58579C15.0391 2.21071 14.5304 2 14 2H2C1.46957 2 0.960859 2.21071 0.585786 2.58579C0.210714 2.96086 0 3.46957 0 4L0 12.25C0 12.7804 0.210714 13.2891 0.585786 13.6642C0.960859 14.0393 1.46957 14.25 2 14.25H14C14.5304 14.25 15.0391 14.0393 15.4142 13.6642C15.7893 13.2891 16 12.7804 16 12.25ZM1.25 12.4V3.85L1.85 3.25H5.25V13H1.85L1.25 12.4ZM6.5 13H14.15L14.75 12.4V3.85L14.15 3.25H6.5V13Z" fill="white"/>
<path fill-rule="evenodd" clip-rule="evenodd" d="M4.5 10.5C4.5 10.3674 4.44732 10.2402 4.35355 10.1464C4.25979 10.0527 4.13261 10 4 10H2.5C2.36739 10 2.24021 10.0527 2.14645 10.1464C2.05268 10.2402 2 10.3674 2 10.5C2 10.6326 2.05268 10.7598 2.14645 10.8536C2.24021 10.9473 2.36739 11 2.5 11H4C4.13261 11 4.25979 10.9473 4.35355 10.8536C4.44732 10.7598 4.5 10.6326 4.5 10.5Z" fill="white"/>
<path fill-rule="evenodd" clip-rule="evenodd" d="M4.5 8C4.5 7.86739 4.44732 7.74021 4.35355 7.64645C4.25979 7.55268 4.13261 7.5 4 7.5H2.5C2.36739 7.5 2.24021 7.55268 2.14645 7.64645C2.05268 7.74021 2 7.86739 2 8C2 8.13261 2.05268 8.25979 2.14645 8.35355C2.24021 8.44732 2.36739 8.5 2.5 8.5H4C4.13261 8.5 4.25979 8.44732 4.35355 8.35355C4.44732 8.25979 4.5 8.13261 4.5 8Z" fill="white"/>
<path fill-rule="evenodd" clip-rule="evenodd" d="M4.5 5.5C4.5 5.36739 4.44732 5.24021 4.35355 5.14645C4.25979 5.05268 4.13261 5 4 5H2.5C2.36739 5 2.24021 5.05268 2.14645 5.14645C2.05268 5.24021 2 5.36739 2 5.5C2 5.63261 2.05268 5.75979 2.14645 5.85355C2.24021 5.94732 2.36739 6 2.5 6H4C4.13261 6 4.25979 5.94732 4.35355 5.85355C4.44732 5.75979 4.5 5.63261 4.5 5.5Z" fill="white"/>
</g>
<defs>
<clipPath id="clip0_8_2">
<rect width="16" height="16" fill="white"/>
</clipPath>
</defs>
</svg>
