<svg width="16" height="16" viewBox="0 0 16 16" fill="none" xmlns="http://www.w3.org/2000/svg">
<g clip-path="url(#clip0_11_2)">
<path fill-rule="evenodd" clip-rule="evenodd" d="M16 12.25V4C16 3.46957 15.7893 2.96086 15.4142 2.58579C15.0391 2.21071 14.5304 2 14 2H2C1.46957 2 0.960859 2.21071 0.585786 2.58579C0.210714 2.96086 0 3.46957 0 4L0 12.25C0 12.7804 0.210714 13.2891 0.585786 13.6642C0.960859 14.0393 1.46957 14.25 2 14.25H14C14.5304 14.25 15.0391 14.0393 15.4142 13.6642C15.7893 13.2891 16 12.7804 16 12.25ZM1.25 12.4V3.85L1.85 3.25H7.375V13H1.85L1.25 12.4ZM8.625 13H14.15L14.75 12.4V3.85L14.15 3.25H8.625V13Z" fill="white"/>
</g>
<defs>
<clipPath id="clip0_11_2">
<rect width="16" height="16" fill="white"/>
</clipPath>
</defs>
</svg>
